HIERARCHY
ROOT Hips
{
  OFFSET 13.6774 106.653 -34.4427
  CHANNELS 6 Xposition Yposition Zposition Zrotation Xrotation Yrotation
  JOINT ToSpine
  {
    OFFSET -2.69724 7.43032 -0.144315
    CHANNELS 3 Zrotation Xrotation Yrotation
    JOINT Spine
    {
      OFFSET -0.0310711 10.7595 1.96963
      CHANNELS 3 Zrotation Xrotation Yrotation
      JOINT Spine1
      {
        OFFSET 19.9056 3.91189 0.764692
        CHANNELS 3 Zrotation Xrotation Yrotation
        JOINT Neck
        {
          OFFSET 25.9749 7.03908 -0.130764
          CHANNELS 3 Zrotation Xrotation Yrotation
          JOINT Head
          {
            OFFSET 9.52751 0.295786 -0.907742
            CHANNELS 3 Zrotation Xrotation Yrotation
            End Site
            {
              OFFSET 16.4037 0.713936 2.7358
            }
          }
        }
        JOINT LeftShoulder
        {
          OFFSET 17.7449 4.33886 11.7777
          CHANNELS 3 Zrotation Xrotation Yrotation
          JOINT LeftArm
          {
            OFFSET 0.911315 1.27913 9.80584
            CHANNELS 3 Zrotation Xrotation Yrotation
            JOINT LeftForeArm
            {
              OFFSET 28.6126 1.18197 -3.53199
              CHANNELS 3 Zrotation Xrotation Yrotation
              JOINT LeftHand
              {
                OFFSET 27.5088 0.0218783 0.327423
                CHANNELS 3 Zrotation Xrotation Yrotation
                End Site
                {
                  OFFSET 18.6038 -0.000155887 0.382096
                }
              }
            }
          }
        }
        JOINT RightShoulder
        {
          OFFSET 17.1009 2.89543 -12.2328
          CHANNELS 3 Zrotation Xrotation Yrotation
          JOINT RightArm
          {
            OFFSET 1.4228 0.178766 -10.211
            CHANNELS 3 Zrotation Xrotation Yrotation
            JOINT RightForeArm
            {
              OFFSET 28.733 1.87905 2.64907
              CHANNELS 3 Zrotation Xrotation Yrotation
              JOINT RightHand
              {
                OFFSET 27.4588 0.290562 -0.101845
                CHANNELS 3 Zrotation Xrotation Yrotation
                End Site
                {
                  OFFSET 17.8396 -0.255518 -0.000602873
                }
              }
            }
          }
        }
      }
    }
  }
  JOINT LeftUpLeg
  {
    OFFSET -5.61296 -2.22332 -10.2353
    CHANNELS 3 Zrotation Xrotation Yrotation
    JOINT LeftLeg
    {
      OFFSET 2.56703 -44.7417 -7.93097
      CHANNELS 3 Zrotation Xrotation Yrotation
      JOINT LeftFoot
      {
        OFFSET 3.16933 -46.5642 -3.96578
        CHANNELS 3 Zrotation Xrotation Yrotation
        JOINT LeftToeBase
        {
          OFFSET 0.346054 -6.02161 12.8035
          CHANNELS 3 Zrotation Xrotation Yrotation
          End Site
          {
            OFFSET 0.134235 -1.35082 5.13018
          }
        }
      }
    }
  }
  JOINT RightUpLeg
  {
    OFFSET -5.7928 -1.72406 10.6446
    CHANNELS 3 Zrotation Xrotation Yrotation
    JOINT RightLeg
    {
      OFFSET -2.57161 -44.7178 -7.85259
      CHANNELS 3 Zrotation Xrotation Yrotation
      JOINT RightFoot
      {
        OFFSET -3.10148 -46.5936 -4.03391
        CHANNELS 3 Zrotation Xrotation Yrotation
        JOINT RightToeBase
        {
          OFFSET -0.0828122 -6.13587 12.8035
          CHANNELS 3 Zrotation Xrotation Yrotation
          End Site
          {
            OFFSET -0.131328 -1.35082 5.13018
          }
        }
      }
    }
  }
}
MOTION
Frames: 12
Frame Time: 0.03333333333333333
0.0000 93.1000 0.0000 53.6565 -42.0848 -7.5843 -71.4260 0.2691 88.2090 91.9284 72.2609 -26.3385 1.1398 21.9606 -1.3171 -129.8382 26.3705 155.5454 145.3172 63.2248 -122.4750 -0.3231 -20.1665 -21.6765 -61.8380 18.7262 -163.0102 28.1504 -2.0618 -92.6707 -0.0655 -0.1460 0.0638 -3.3533 8.4062 48.0926 -120.8060 -11.7418 71.5743 14.9055 -10.5342 56.7051 -0.1723 0.2120 -0.2540 -18.1302 28.1937 82.1013 -8.7040 64.8851 -2.8945 0.0565 -20.3221 -1.8614 4.1383 -11.8769 12.5030 -27.3663 -4.9243 58.8238 3.7578 30.5757 17.1047 0.1758 8.9351 -0.8692 -1.0515 -4.7476 8.3933 
0.0000 93.1000 0.0000 54.2430 -41.6540 -6.4922 -71.3315 0.8717 88.1665 90.8100 72.1370 -24.5813 1.3049 21.3417 -0.4992 -128.4022 25.6321 155.1655 145.6462 63.4164 -121.9818 0.1641 -19.6723 -21.8374 -62.8693 20.7091 -160.9088 27.3280 -1.7384 -93.3640 -0.0192 -0.2531 0.0214 -2.9424 8.2880 48.5122 -120.3599 -11.4297 72.1637 16.0327 -10.2730 59.7863 -0.0685 0.4204 0.2122 -21.1897 27.4310 83.8632 -7.9498 63.9186 -4.2437 -0.3543 -19.3990 -2.0951 3.8183 -12.4308 12.7508 -28.2685 -5.4111 61.3147 4.8878 29.9745 16.2323 0.5471 8.7336 -0.3089 -1.1882 -5.4879 8.8505 
0.0000 93.1000 0.0000 55.5236 -41.3882 -7.7855 -71.4122 0.8184 88.1453 89.7941 72.0796 -22.6431 1.3083 21.2418 -0.3006 -125.9108 24.9093 153.6786 149.2517 63.9876 -124.9907 0.2847 -19.0395 -21.7564 -63.1084 22.4925 -159.8023 26.8334 -2.6214 -94.2132 -0.1606 -0.2530 0.0839 -2.9245 7.6432 48.6149 -121.4040 -10.8350 73.7833 16.9605 -9.4218 62.3780 -0.1024 0.4431 0.2235 -24.4256 26.7023 86.2497 -6.9673 62.1642 -4.2349 -0.2210 -19.6051 -2.1851 3.4666 -11.8998 11.8518 -29.9173 -5.9037 64.1392 5.1224 29.7676 13.7458 0.6094 8.1753 -0.4022 -1.4830 -4.2846 10.0181 
0.0000 93.1000 0.0000 57.6014 -40.8138 -7.5616 -71.4447 1.1143 88.2096 86.8349 72.0773 -21.2383 1.1201 21.2101 0.5579 -124.9391 24.3764 154.0896 152.1160 64.5302 -126.3605 0.6688 -18.6474 -22.1589 -65.0500 23.6335 -156.8581 26.0955 -2.7759 -95.5605 0.2261 -0.5559 -0.1909 -2.8589 7.2041 47.6734 -123.3407 -10.7095 73.9803 18.4744 -8.4780 65.3919 0.0382 0.7964 0.0523 -28.2003 25.9986 88.7342 -7.4426 60.2277 -5.1909 -0.2591 -19.4725 -2.0682 3.6889 -11.4396 12.6555 -30.9552 -6.0369 67.4795 6.0521 28.4082 10.1952 0.3991 8.0621 -0.2673 -1.7255 -3.1624 10.4623 
0.0000 93.1000 0.0000 58.3373 -40.8046 -8.1208 -71.4120 0.4159 88.2899 85.6491 71.3779 -17.8421 0.9823 20.9471 0.1302 -122.7835 24.3227 152.9950 154.0802 65.1497 -126.9662 0.1959 -18.5097 -21.9621 -66.0234 24.6055 -154.5599 25.0790 -2.8798 -95.7213 -0.1677 -0.2660 0.1963 -2.9876 7.3821 46.6801 -124.3250 -10.6196 74.6820 18.5109 -7.6236 68.5007 -0.2416 0.4242 -0.0452 -31.3363 24.6569 91.0084 -5.9581 58.3238 -6.3911 0.1024 -18.9389 -2.0561 3.7432 -11.6914 11.5609 -32.1570 -5.8991 70.8853 4.8684 26.9617 9.9142 0.8109 7.3320 -0.9143 -1.5247 -2.0705 9.9375 
0.0000 93.1000 0.0000 59.5864 -40.9497 -9.7578 -71.4832 0.5839 88.3867 83.0869 71.0793 -14.3678 1.4372 20.9061 -0.0489 -121.9966 24.3344 153.0926 158.3275 66.2016 -127.3759 0.2997 -18.5779 -22.1364 -67.1640 25.7704 -153.3473 24.9505 -3.6737 -96.5902 -0.1330 -0.3503 -0.2201 -2.6640 7.6834 44.9410 -126.4923 -11.7982 74.4552 18.6330 -7.8061 71.9405 0.2098 0.5353 0.1885 -33.5187 23.6860 93.0004 -5.7146 56.0207 -7.0326 0.5456 -19.3951 -2.1798 2.9854 -12.0402 12.8619 -34.0990 -6.0106 73.7629 5.6072 25.5655 7.6300 1.4908 7.4679 -0.7256 -1.6708 -2.1985 10.5895 
0.0000 93.1000 0.0000 60.1864 -40.3322 -9.7186 -71.5391 0.1880 88.2029 80.9783 71.1337 -9.8713 2.2214 20.5634 0.2737 -122.1050 24.3030 153.1875 160.3679 67.2067 -129.8612 0.0052 -18.0308 -21.9213 -67.0759 27.2641 -152.4186 24.4976 -3.8411 -96.9479 -0.2701 -0.0570 -0.0732 -2.5958 7.6777 43.2506 -127.7146 -11.8233 74.8177 19.6774 -6.9231 74.0253 0.0446 0.1604 0.2037 -35.8271 22.3200 94.2560 -4.8945 53.3086 -7.3086 0.5176 -18.3787 -2.0983 3.1668 -11.5990 13.2652 -35.1139 -5.8374 76.2294 4.0871 24.8248 5.8152 1.4711 7.5618 -0.9711 -1.9177 -2.4013 10.4431 
0.0000 93.1000 0.0000 59.7860 -40.3253 -10.7707 -71.4570 0.5259 88.0961 77.7520 71.1726 -4.7514 2.9811 20.5686 0.4082 -122.9851 25.1402 154.5916 161.4496 68.2750 -132.7280 0.3520 -18.0956 -21.6326 -68.0496 29.1199 -151.5669 24.4972 -3.4435 -96.9628 -0.2347 -0.3282 -0.0197 -2.4285 7.7215 42.2840 -128.9651 -12.8350 76.1416 21.0033 -5.7632 76.6478 -0.1335 0.4338 -0.0919 -38.4796 20.8613 95.2755 -5.1841 50.8822 -5.9649 0.3611 -18.7051 -2.0355 3.2851 -10.1308 11.5118 -36.1271 -6.0723 77.8011 3.8345 24.6299 5.4422 1.2433 7.2118 -0.8108 -1.1273 -4.2421 10.4760 
0.0000 93.1000 0.0000 61.0133 -40.0255 -11.2392 -71.4378 0.9624 88.1322 77.5889 70.9536 -3.4729 2.6297 20.4026 0.3456 -121.0570 24.8539 152.7887 167.4419 69.5955 -136.4579 0.7673 -17.8363 -20.9853 -68.7366 30.6003 -150.5852 24.7667 -3.9160 -97.2928 0.1124 -0.5237 -0.2333 -2.1796 7.4226 41.9870 -130.2063 -12.3430 77.6827 21.6678 -4.6857 78.2442 0.2685 0.6473 0.0912 -40.9239 19.6717 95.6573 -3.7698 49.4128 -6.5593 0.2581 -17.7078 -1.9628 2.6081 -10.1485 11.5203 -36.8691 -7.1769 78.7274 2.7491 23.8524 4.7697 0.5113 7.0851 -0.5008 -0.4748 -4.3610 10.2894 
0.0000 93.1000 0.0000 62.7046 -39.0951 -11.6526 -71.4846 1.2172 88.1211 75.9833 71.1887 -0.6418 3.2685 20.0687 0.5592 -120.9828 25.5107 153.1342 162.8846 70.4485 -134.4624 1.0985 -18.1821 -21.1118 -69.1279 31.4815 -148.6120 24.7688 -3.9798 -97.8405 0.1169 -0.9532 0.1737 -2.4343 7.8413 41.0587 -132.0774 -11.0582 78.9348 21.9457 -3.6877 79.7090 -0.1718 1.2242 -0.1534 -43.1970 18.2945 96.2695 -4.1591 47.6611 -6.4502 -0.0832 -18.0446 -1.4754 2.3298 -8.3771 11.1850 -37.9292 -7.9951 79.1214 2.5959 24.2785 3.5116 0.6912 6.0799 -0.6642 -1.3960 -4.7590 11.6335 
0.0000 93.1000 0.0000 63.3771 -38.9370 -11.6124 -71.3958 0.8089 87.9371 74.7396 71.2669 0.8413 3.1488 19.8704 1.2279 -121.1945 26.4549 152.7098 171.9399 71.4328 -141.4212 0.5810 -18.1682 -21.9496 -68.3138 32.5004 -148.5958 24.3101 -4.3598 -99.2429 -0.0791 -0.1230 0.3365 -2.0391 7.3978 40.2495 -133.2862 -10.8171 80.7370 22.6243 -3.7241 80.7716 0.3134 0.2903 0.2495 -45.5736 16.4348 95.9600 -4.2949 45.6768 -5.0296 -0.5882 -17.2315 -2.0486 2.0200 -8.6464 11.3273 -39.4061 -8.8852 80.2896 1.8609 23.4537 4.0426 0.4999 5.8316 -0.4806 -1.0017 -5.5871 11.0535 
0.0000 93.1000 0.0000 64.3874 -38.9836 -11.4006 -71.3300 -2.3020 87.6672 74.5254 70.9693 1.3214 1.7843 19.4104 1.6399 -122.4661 26.9443 151.8096 173.9355 72.0536 -145.8451 -2.5180 -17.6958 -22.7488 -68.1610 33.6020 -148.6452 23.0969 -4.4928 -99.1748 -0.8366 3.2510 0.8911 -1.6770 6.8420 39.6752 -133.1906 -12.5666 82.9036 21.9347 -3.5505 82.4108 1.1213 -3.7236 1.1416 -47.9579 14.2188 96.5764 -3.0501 43.7369 -5.0840 -0.9398 -17.1795 -4.0279 1.3349 -7.6184 11.7147 -39.5493 -9.6609 80.3321 2.1778 24.1797 5.3321 -1.3661 5.9828 -0.6481 -0.6350 -4.4090 11.3366 
